<svg width="155" height="35" viewBox="0 0 155 35" fill="none" xmlns="http://www.w3.org/2000/svg">
<path d="M12.376 27.192C15.672 27.192 18.616 26.072 20.6 23.896L19.096 22.392C17.272 24.28 15.032 25.08 12.472 25.08C7.064 25.08 3 21.112 3 15.8C3 10.488 7.064 6.52 12.472 6.52C15.032 6.52 17.272 7.32 19.096 9.176L20.6 7.672C18.616 5.496 15.672 4.408 12.408 4.408C5.656 4.408 0.664 9.24 0.664 15.8C0.664 22.36 5.656 27.192 12.376 27.192ZM31.298 27.16C36.226 27.16 39.842 23.576 39.842 18.584C39.842 13.592 36.226 10.04 31.298 10.04C26.37 10.04 22.722 13.592 22.722 18.584C22.722 23.576 26.37 27.16 31.298 27.16ZM31.298 25.144C27.714 25.144 25.026 22.52 25.026 18.584C25.026 14.648 27.714 12.024 31.298 12.024C34.882 12.024 37.538 14.648 37.538 18.584C37.538 22.52 34.882 25.144 31.298 25.144ZM51.3605 27.16C56.2885 27.16 59.9045 23.576 59.9045 18.584C59.9045 13.592 56.2885 10.04 51.3605 10.04C46.4325 10.04 42.7845 13.592 42.7845 18.584C42.7845 23.576 46.4325 27.16 51.3605 27.16ZM51.3605 25.144C47.7765 25.144 45.0885 22.52 45.0885 18.584C45.0885 14.648 47.7765 12.024 51.3605 12.024C54.9445 12.024 57.6005 14.648 57.6005 18.584C57.6005 22.52 54.9445 25.144 51.3605 25.144ZM64.543 27H66.815V3.256H64.543V27Z" fill="black"/>
<path d="M91.4608 13.896C93.5128 12.816 94.8088 10.872 94.8088 8.352C94.8088 4.428 91.5688 1.8 85.2688 1.8H72.9568V27H85.9888C92.6128 27 96.0688 24.48 96.0688 20.124C96.0688 16.956 94.2688 14.796 91.4608 13.896ZM84.5488 6.192C87.3928 6.192 88.9408 7.164 88.9408 9.144C88.9408 11.124 87.3928 12.132 84.5488 12.132H78.7528V6.192H84.5488ZM85.5568 22.608H78.7528V16.38H85.5568C88.5808 16.38 90.2008 17.388 90.2008 19.512C90.2008 21.672 88.5808 22.608 85.5568 22.608ZM100.088 27H105.704V0.287998H100.088V27ZM120.132 27.288C126.288 27.288 130.752 23.148 130.752 17.316C130.752 11.484 126.288 7.344 120.132 7.344C113.976 7.344 109.476 11.484 109.476 17.316C109.476 23.148 113.976 27.288 120.132 27.288ZM120.132 22.68C117.324 22.68 115.164 20.664 115.164 17.316C115.164 13.968 117.324 11.952 120.132 11.952C122.94 11.952 125.064 13.968 125.064 17.316C125.064 20.664 122.94 22.68 120.132 22.68ZM149.158 7.632V10.116C147.682 8.244 145.45 7.344 142.75 7.344C137.386 7.344 133.066 11.052 133.066 16.704C133.066 22.356 137.386 26.064 142.75 26.064C145.27 26.064 147.394 25.272 148.87 23.652V24.48C148.87 27.972 147.142 29.772 143.182 29.772C140.698 29.772 137.998 28.908 136.342 27.576L134.11 31.608C136.378 33.372 139.942 34.272 143.614 34.272C150.598 34.272 154.486 30.96 154.486 23.76V7.632H149.158ZM143.866 21.456C140.914 21.456 138.754 19.548 138.754 16.704C138.754 13.86 140.914 11.952 143.866 11.952C146.818 11.952 148.942 13.86 148.942 16.704C148.942 19.548 146.818 21.456 143.866 21.456Z" fill="#40CFFF"/>
</svg>
